<svg><path d="M25.6076 4.39322C19.7496 -1.46408 10.2518 -1.46473 4.39322 4.39322C-1.46473 10.2512 -1.46408 19.749 4.39322 25.6076C10.2512 31.4642 19.749 31.4649 25.6076 25.6076C31.4649 19.749 31.4642 10.2518 25.6076 4.39322ZM16.9563 21.5223C16.9563 22.603 16.0804 23.4788 14.9998 23.4788C13.9191 23.4788 13.0432 22.603 13.0432 21.5223V13.696C13.0432 12.6154 13.9191 11.7395 14.9998 11.7395C16.0804 11.7395 16.9563 12.6154 16.9563 13.696V21.5223ZM14.9652 10.3516C13.8382 10.3516 13.0869 9.55333 13.1104 8.56787C13.0869 7.53481 13.8382 6.76066 14.988 6.76066C16.1385 6.76066 16.8663 7.53546 16.8904 8.56787C16.8898 9.55333 16.1391 10.3516 14.9652 10.3516Z"/></svg>
