<svg>
  <path d="M13.2422 13.5938C9.49436 13.5938 6.44531 10.5447 6.44531 6.79688C6.44531 3.04904 9.49436 0 13.2422 0C16.99 0 20.0391 3.04904 20.0391 6.79688C20.0391 10.5447 16.99 13.5938 13.2422 13.5938Z"/>
  <path d="M15.8789 18.5742C15.8789 17.0695 16.3014 15.6617 17.0337 14.4629C15.8902 15.0308 14.6032 15.3516 13.2422 15.3516C11.4769 15.3516 9.83484 14.814 8.47096 13.8941C6.78451 14.5478 5.2374 15.5518 3.92004 16.8691C1.42992 19.3592 0.0585938 22.6699 0.0585938 26.1913V29.1211C0.0585938 29.6065 0.452109 30 0.9375 30H25.5469C26.0323 30 26.4258 29.6065 26.4258 29.1211V26.1913C26.4258 26.1386 26.4243 26.0856 26.4237 26.0327C25.5991 26.3248 24.7124 26.4844 23.7891 26.4844C19.4274 26.4844 15.8789 22.9359 15.8789 18.5742Z"/>
  <path d="M23.7891 12.4219C20.3967 12.4219 17.6367 15.1818 17.6367 18.5742C17.6367 21.9666 20.3967 24.7266 23.7891 24.7266C27.1815 24.7266 29.9414 21.9666 29.9414 18.5742C29.9414 15.1818 27.1815 12.4219 23.7891 12.4219ZM25.5469 19.4531H24.668V20.332C24.668 20.8174 24.2745 21.2109 23.7891 21.2109C23.3037 21.2109 22.9102 20.8174 22.9102 20.332V19.4531H22.0312C21.5459 19.4531 21.1523 19.0596 21.1523 18.5742C21.1523 18.0888 21.5459 17.6953 22.0312 17.6953H22.9102V16.8164C22.9102 16.331 23.3037 15.9375 23.7891 15.9375C24.2745 15.9375 24.668 16.331 24.668 16.8164V17.6953H25.5469C26.0323 17.6953 26.4258 18.0888 26.4258 18.5742C26.4258 19.0596 26.0323 19.4531 25.5469 19.4531Z"/>
</svg>
