<svg>
  <path d="M29.9046 13.2722C29.8408 13.1197 29.7496 12.981 29.6333 12.8647L25.8846 9.11593C25.3958 8.62843 24.6058 8.62843 24.1171 9.11593C23.6283 9.60466 23.6283 10.3959 24.1171 10.8834L25.7333 12.4997H18.7508C18.0595 12.4997 17.5008 13.0596 17.5008 13.7496C17.5008 14.4396 18.0595 14.9996 18.7508 14.9996H25.7333L24.117 16.6159C23.6283 17.1046 23.6283 17.8959 24.117 18.3834C24.3608 18.6283 24.6807 18.7496 25.0008 18.7496C25.3208 18.7496 25.6408 18.6284 25.8846 18.3834L29.6333 14.6346C29.7496 14.5196 29.8408 14.3808 29.9046 14.2271C30.0308 13.9222 30.0308 13.5772 29.9046 13.2722Z"/>
  <path d="M21.2511 17.5C20.5598 17.5 20.0011 18.06 20.0011 18.75V25H15.0011V4.99998C15.0011 4.44873 14.6386 3.96123 14.1098 3.8025L9.76856 2.50002H20.0011V8.75004C20.0011 9.44004 20.5598 10 21.2511 10C21.9423 10 22.501 9.44004 22.501 8.75004V1.25004C22.501 0.55998 21.9423 0 21.2511 0H1.25108C1.20608 0 1.16606 0.01875 1.12235 0.0237305C1.06358 0.03 1.00985 0.0399609 0.953599 0.0537305C0.822349 0.0874805 0.703579 0.13875 0.592368 0.208711C0.564888 0.22623 0.531138 0.227461 0.504888 0.247441C0.49481 0.255 0.49106 0.26877 0.48104 0.27627C0.34481 0.38373 0.231079 0.51498 0.148579 0.67125C0.13106 0.705 0.12731 0.74127 0.113599 0.77625C0.0735791 0.87123 0.0298682 0.96375 0.0148682 1.06875C0.00859863 1.10625 0.0198486 1.14123 0.0186182 1.1775C0.0173877 1.20252 0.00109863 1.22502 0.00109863 1.24998V26.25C0.00109863 26.8463 0.422329 27.3588 1.0061 27.475L13.5061 29.975C13.5873 29.9926 13.6698 30.0001 13.7511 30.0001C14.0373 30.0001 14.3185 29.9013 14.5435 29.7163C14.8323 29.4788 15.001 29.125 15.001 28.75V27.5H21.2511C21.9423 27.5 22.501 26.9401 22.501 26.2501V18.75C22.501 18.06 21.9423 17.5 21.2511 17.5Z"/>
</svg>
