<svg><path d="M18.1037 5.14911C19.4908 6.18258 20.4635 7.93143 20.6406 9.96144C21.2063 10.2755 21.8341 10.4562 22.4998 10.4562C24.93 10.4562 26.8997 8.11561 26.8997 5.2283C26.8997 2.34055 24.93 0 22.4998 0C20.0928 0.000889772 18.1404 2.29962 18.1037 5.14911ZM15.2213 15.854C17.6514 15.854 19.6211 13.513 19.6211 10.6257C19.6211 7.73835 17.6511 5.3978 15.2213 5.3978C12.7915 5.3978 10.8207 7.73879 10.8207 10.6261C10.8207 13.5134 12.7915 15.854 15.2213 15.854ZM17.0876 16.2103H13.3542C10.2478 16.2103 7.7207 19.2137 7.7207 22.905V28.3303L7.73231 28.4153L8.0468 28.5323C11.0112 29.633 13.5867 30 15.7065 30C19.8469 30 22.2467 28.5973 22.3946 28.5079L22.6885 28.3312H22.72V22.905C22.7211 19.2137 20.1939 16.2103 17.0876 16.2103ZM24.3669 10.813H20.6623C20.6222 12.5743 19.9895 14.1603 18.9888 15.301C21.7499 16.2766 23.7701 19.3192 23.7701 22.913V24.5848C27.4279 24.4256 29.5358 23.1937 29.6747 23.1109L29.9685 22.9339H30V17.5067C30 13.8159 27.4729 10.813 24.3669 10.813ZM7.50094 10.457C8.36166 10.457 9.16249 10.1585 9.84088 9.65002C10.0565 7.97859 10.8106 6.51803 11.8877 5.52326C11.8922 5.42539 11.9 5.3284 11.9 5.22964C11.9 2.34188 9.92999 0.00133456 7.50094 0.00133456C5.07039 0.00133456 3.10109 2.34188 3.10109 5.22964C3.10109 8.11606 5.07039 10.457 7.50094 10.457ZM11.4523 15.301C10.4564 14.1661 9.82591 12.5885 9.77986 10.8379C9.64246 10.8259 9.50655 10.813 9.36653 10.813H5.63347C2.52714 10.813 0 13.8159 0 17.5067V22.933L0.0116061 23.0166L0.326095 23.1345C2.70423 24.0167 4.82666 24.4234 6.67016 24.5515V22.913C6.67091 19.3192 8.69038 16.2775 11.4523 15.301Z"/></svg>
