<svg viewBox="0 0 17 15"><path d="M16.6468 11.4779L10.6415 1.14145C9.67665 -0.379471 7.32464 -0.381492 6.3585 1.14145L0.35351 11.4779C-0.632823 13.032 0.561328 15 2.49451 15H14.5053C16.4368 15 17.6331 13.0336 16.6468 11.4779ZM8.5 13.1346C7.95089 13.1346 7.50391 12.7161 7.50391 12.202C7.50391 11.6878 7.95089 11.2693 8.5 11.2693C9.04911 11.2693 9.49609 11.6878 9.49609 12.202C9.49609 12.7161 9.04911 13.1346 8.5 13.1346ZM9.49609 9.40394C9.49609 9.91809 9.04911 10.3366 8.5 10.3366C7.95089 10.3366 7.50391 9.91809 7.50391 9.40394V4.74055C7.50391 4.2264 7.95089 3.80788 8.5 3.80788C9.04911 3.80788 9.49609 4.2264 9.49609 4.74055V9.40394Z"/></svg>
